# xmcd
#
# Track frame offsets: 
#        150
#        14062
#        40737
#        63687
#        84912
#        103400
#        123842
#        142325
#        154887
#        170532
#
# Disc length: 2503 seconds
#
# Revision: 6
# Processed by: cddbd v1.5.2PL0 Copyright (c) Steve Scherf et al.
# Submitted via: ExactAudioCopyFreeDBPlugin 1.0
#
DISCID=8e09c50a
DTITLE=Rick Trevino - Mi Son
DYEAR=2001
DGENRE=Latin
TTITLE0=El Gustito
TTITLE1=El Tira y Jala
TTITLE2=Vuelvo al Sur
TTITLE3=Mi Son
TTITLE4=La Hiedra
TTITLE5=Ojos
TTITLE6=Vanidad
TTITLE7=Cupido
TTITLE8=Echale Tierra y Tapalo
TTITLE9=Long Goodbye
EXTD=
EXTT0=
EXTT1=
EXTT2=
EXTT3=
EXTT4=
EXTT5=
EXTT6=
EXTT7=
EXTT8=
EXTT9=
PLAYORDER=
